<svg width="51" height="100" viewBox="0 0 51 49" fill="none" xmlns="http://www.w3.org/2000/svg">
<path d="M47.6507 19.7867C48.2284 18.1587 48.4281 16.4341 48.2364 14.7281C48.0447 13.0221 47.4661 11.374 46.5391 9.89384C45.1646 7.65608 43.0658 5.8844 40.5453 4.83425C38.0247 3.78411 35.2127 3.50977 32.5147 4.05078C30.9823 2.45637 29.0284 1.26708 26.8491 0.602309C24.6698 -0.0624611 22.3419 -0.179309 20.0991 0.263496C17.8562 0.706302 15.7774 1.69318 14.0714 3.12503C12.3653 4.55689 11.092 6.38334 10.3794 8.42099C8.58192 8.76566 6.88378 9.46519 5.3985 10.4728C3.91321 11.4805 2.67499 12.773 1.76658 14.264C0.376952 16.4981 -0.216928 19.0876 0.0708111 21.6581C0.358551 24.2287 1.513 26.647 3.36721 28.5634C2.78657 30.1908 2.58422 31.9154 2.77369 33.6219C2.96317 35.3283 3.5401 36.9772 4.4659 38.4583C5.84222 40.6969 7.94297 42.469 10.4654 43.5191C12.9878 44.5692 15.8015 44.8431 18.5011 44.3014C19.7187 45.5845 21.215 46.6098 22.8901 47.3088C24.5652 48.0079 26.3805 48.3647 28.2148 48.3553C30.9802 48.3576 33.6749 47.538 35.9099 46.0148C38.1448 44.4916 39.8045 42.3436 40.6493 39.8808C42.4462 39.5353 44.1436 38.8354 45.6284 37.8278C47.1132 36.8202 48.3512 35.5282 49.26 34.0378C50.6331 31.8072 51.2169 29.2276 50.9278 26.668C50.6388 24.1084 49.4917 21.6998 47.6507 19.7867ZM28.2148 45.192C25.9505 45.1955 23.7572 44.4537 22.019 43.0965L22.3228 42.9333L32.6181 37.3764C32.8739 37.2357 33.0862 37.0352 33.2343 36.7947C33.3823 36.5542 33.461 36.2818 33.4626 36.0042V22.4302L37.8143 24.7836C37.8358 24.7938 37.8544 24.8086 37.8686 24.8268C37.8828 24.845 37.8923 24.8661 37.8961 24.8883V36.1372C37.8904 38.5371 36.8686 40.8371 35.0542 42.534C33.2398 44.2309 30.7807 45.1866 28.2148 45.192ZM7.40434 36.8787C6.26796 35.0444 5.85983 32.894 6.2518 30.8059L6.55771 30.9772L16.8617 36.5362C17.1164 36.6759 17.4065 36.7496 17.7018 36.7496C17.9972 36.7496 18.2872 36.6759 18.542 36.5362L31.1295 29.7481V34.4468C31.1286 34.4713 31.1217 34.4953 31.1094 34.5169C31.0971 34.5386 31.0796 34.5573 31.0584 34.5717L20.6317 40.1951C18.4067 41.3931 15.7645 41.7167 13.2848 41.095C10.805 40.4733 8.69023 38.9569 7.40434 36.8787ZM4.68994 15.9082C5.83381 14.0618 7.63941 12.6535 9.78698 11.9329V23.3712C9.78323 23.6474 9.85882 23.9195 10.0058 24.159C10.1529 24.3986 10.3659 24.5969 10.6228 24.7332L23.15 31.493L18.7984 33.8463C18.7748 33.858 18.7485 33.8641 18.7219 33.8641C18.6952 33.8641 18.669 33.858 18.6454 33.8463L8.24021 28.233C6.01857 27.0295 4.39749 25.0515 3.73205 22.7324C3.06661 20.4132 3.41105 17.9419 4.68994 15.8598V15.9082ZM40.4446 23.6754L27.8787 16.8511L32.2196 14.5058C32.2431 14.4942 32.2694 14.4881 32.2961 14.4881C32.3227 14.4881 32.349 14.4942 32.3725 14.5058L42.7777 20.1293C44.3696 20.9874 45.6675 22.2516 46.5198 23.774C47.3721 25.2964 47.7436 27.0142 47.5909 28.7267C47.4381 30.4392 46.7675 32.0757 45.6574 33.445C44.5472 34.8144 43.0433 35.8599 41.3214 36.4596V25.0193C41.3124 24.7434 41.2268 24.4745 41.0731 24.2389C40.9194 24.0033 40.7028 23.8091 40.4446 23.6754ZM44.7748 17.5845L44.471 17.4133L34.1864 11.8079C33.93 11.6673 33.6381 11.5932 33.3409 11.5932C33.0436 11.5932 32.7517 11.6673 32.4953 11.8079L19.9186 18.596V13.8953C19.916 13.8717 19.9202 13.8478 19.9308 13.8262C19.9414 13.8046 19.958 13.786 19.9789 13.7724L30.3841 8.15704C31.979 7.29857 33.8023 6.88239 35.6407 6.95715C37.4792 7.03191 39.2569 7.59451 40.7662 8.57922C42.2754 9.56393 43.4538 10.9301 44.1636 12.5179C44.8735 14.1058 45.0855 15.8499 44.7748 17.5462V17.5845ZM17.5446 25.9159L13.1929 23.5706C13.171 23.5583 13.1523 23.5417 13.1382 23.5218C13.124 23.502 13.1148 23.4794 13.111 23.4558V12.2391C13.1147 10.5186 13.6416 8.83463 14.6303 7.38378C15.619 5.93292 17.0287 4.77511 18.6947 4.04558C20.3607 3.31605 22.2142 3.0449 24.0388 3.26381C25.8634 3.48272 27.5837 4.18265 28.9989 5.28186L28.693 5.44304L18.3998 11C18.1436 11.1404 17.9309 11.3408 17.7824 11.5813C17.634 11.8219 17.555 12.0944 17.5532 12.3721L17.5446 25.9159ZM19.9078 21.1508L25.5133 18.1285L31.1295 21.1508V27.1933L25.5348 30.2156L19.9186 27.1933L19.9078 21.1508Z" fill="white"/>
</svg>
