<svg width="35" height="37" viewBox="0 0 35 37" fill="none" xmlns="http://www.w3.org/2000/svg">
<path d="M12.0894 35.5497H8.48229C4.49801 35.5497 1.26812 32.0055 1.26812 27.6337V15.1811C1.26812 12.413 2.5858 9.846 4.74316 8.41131L13.7609 2.41437C16.0592 0.886032 18.9409 0.886032 21.2391 2.41437L30.2568 8.41131C32.4142 9.846 33.7319 12.413 33.7319 15.1811V27.6337C33.7319 32.0055 30.5019 35.5497 26.5177 35.5497H22.9106M12.0894 35.5497V27.6337C12.0894 24.3547 14.5117 21.6967 17.5 21.6967C20.4883 21.6967 22.9106 24.3547 22.9106 27.6337V35.5497M12.0894 35.5497H22.9106" stroke="black" stroke-width="2.5" stroke-linecap="round" stroke-linejoin="round"/>
</svg>
