<svg width="392" height="79" viewBox="0 0 392 79" fill="none" xmlns="http://www.w3.org/2000/svg">
<rect width="392" height="79" rx="20" fill="#F6F6F6"/>
<path d="M342.5 57C352.165 57 360 49.1649 360 39.5C360 29.835 352.165 22 342.5 22C332.835 22 325 29.835 325 39.5C325 42.6875 325.852 45.6759 327.341 48.25L325.875 56.125L333.75 54.6589C336.324 56.1478 339.313 57 342.5 57Z" stroke="black" stroke-width="2" stroke-linecap="round" stroke-linejoin="round"/>
<path d="M162.581 36.2553V31.6072C162.581 30.3853 162.158 29.2134 161.404 28.3494C160.651 27.4854 159.628 27 158.562 27H144.271C143.205 27 142.183 27.4854 141.429 28.3494C140.676 29.2134 140.252 30.3853 140.252 31.6072V55.1551C140.252 55.8339 140.017 56.485 139.598 56.965C139.179 57.445 138.611 57.7146 138.019 57.7146C137.427 57.7146 136.859 57.445 136.44 56.965C136.022 56.485 135.786 55.8339 135.786 55.1551V51.4898H138.636V49.4422H134V55.0732C134 56.2951 134.423 57.4669 135.177 58.331C135.931 59.195 136.953 59.6804 138.019 59.6804H155.061C156.127 59.6804 157.149 59.195 157.903 58.331C158.657 57.4669 159.08 56.2951 159.08 55.0732V38.3132H157.294V55.1141C157.294 55.793 157.059 56.444 156.64 56.924C156.221 57.404 155.653 57.6737 155.061 57.6737H141.36C141.803 56.917 142.04 56.0258 142.039 55.1141V31.5662C142.039 30.8874 142.274 30.2364 142.693 29.7564C143.111 29.2764 143.679 29.0067 144.271 29.0067C144.864 29.0067 145.432 29.2764 145.85 29.7564C146.269 30.2364 146.504 30.8874 146.504 31.5662V36.2144L162.581 36.2553ZM158.562 29.0886C159.148 29.0885 159.711 29.3525 160.129 29.8237C160.546 30.2949 160.786 30.9355 160.795 31.6072V34.2077H148.291V31.6072C148.291 30.6956 148.055 29.8046 147.612 29.0476L158.562 29.0886Z" fill="black"/>
<path d="M238 30C238 27.2386 240.239 25 243 25C245.761 25 248 27.2386 248 30C248 31.6119 247.237 33.0456 246.053 33.96C246.017 33.9863 245.982 34.0129 245.947 34.0397C245.12 34.6435 244.102 35 243 35C240.239 35 238 32.7614 238 30ZM243 27.5C241.619 27.5 240.5 28.6193 240.5 30C240.5 31.3807 241.619 32.5 243 32.5C244.381 32.5 245.5 31.3807 245.5 30C245.5 28.6193 244.381 27.5 243 27.5Z" fill="#212121"/>
<path d="M254.946 33.96C253.762 33.0456 253 31.6119 253 30C253 27.2386 255.238 25 257.999 25C260.761 25 262.999 27.2386 262.999 30C262.999 32.7614 260.761 35 257.999 35C256.898 35 255.879 34.6436 255.053 34.0398C255.018 34.0129 254.982 33.9863 254.946 33.96ZM257.999 27.5C256.619 27.5 255.499 28.6193 255.499 30C255.499 31.3807 256.619 32.5 257.999 32.5C259.38 32.5 260.499 31.3807 260.499 30C260.499 28.6193 259.38 27.5 257.999 27.5Z" fill="#212121"/>
<path d="M236.75 37.501H243.427C243.15 38.2829 243 39.1244 243 40.001H236.75C236.06 40.001 235.5 40.5606 235.5 41.251C235.5 43.2932 236.311 44.8078 237.595 45.8383C238.186 46.3122 238.893 46.6959 239.692 46.9748C239.111 47.5934 238.655 48.3302 238.364 49.1449C237.514 48.7992 236.727 48.3474 236.03 47.7879C234.147 46.2766 233 44.0412 233 41.251C233 39.18 234.679 37.501 236.75 37.501Z" fill="#212121"/>
<path d="M246.169 37.5C245.743 38.2354 245.5 39.0893 245.5 40C245.5 42.1088 246.806 43.9128 248.652 44.6476C249.224 44.8749 249.847 45 250.5 45C251.153 45 251.776 44.8749 252.347 44.6476C254.194 43.9127 255.5 42.1088 255.5 40C255.5 39.0893 255.256 38.2354 254.831 37.5C253.966 36.0055 252.351 35 250.5 35C248.649 35 247.033 36.0055 246.169 37.5ZM249.939 37.5632C250.119 37.5218 250.307 37.5 250.5 37.5C250.693 37.5 250.881 37.5218 251.061 37.5632C252.171 37.8178 253 38.8121 253 40C253 40.1928 252.978 40.3806 252.937 40.5609C252.682 41.6715 251.688 42.5 250.5 42.5C249.312 42.5 248.318 41.6715 248.063 40.5609C248.022 40.3806 248 40.1928 248 40C248 38.8121 248.828 37.8178 249.939 37.5632Z" fill="#212121"/>
<path d="M263.405 45.8383C262.814 46.3122 262.107 46.6959 261.308 46.9748C261.889 47.5934 262.345 48.3302 262.636 49.1449C263.486 48.7992 264.272 48.3474 264.97 47.7879C266.852 46.2766 268 44.0412 268 41.251C268 39.1799 266.321 37.501 264.25 37.501H257.573C257.849 38.2829 258 39.1244 258 40.001H264.25C264.94 40.001 265.5 40.5606 265.5 41.251C265.5 43.2932 264.689 44.8078 263.405 45.8383Z" fill="#212121"/>
<path d="M256.75 47.499C258.315 47.499 259.656 48.4573 260.218 49.819C260.4 50.2598 260.5 50.7428 260.5 51.249C260.5 54.0393 259.353 56.2747 257.47 57.786C255.617 59.2735 253.133 59.999 250.5 59.999C247.868 59.999 245.384 59.2735 243.531 57.786C241.648 56.2747 240.5 54.0393 240.5 51.249C240.5 50.7428 240.601 50.2598 240.783 49.819C241.345 48.4573 242.686 47.499 244.25 47.499H256.75ZM256.75 49.999H244.25C243.56 49.999 243 50.5588 243 51.249C243 53.2913 243.812 54.8058 245.096 55.8362C246.409 56.8907 248.301 57.499 250.5 57.499C252.7 57.499 254.591 56.8907 255.905 55.8362C257.189 54.8058 258 53.2913 258 51.249C258 50.5588 257.441 49.999 256.75 49.999Z" fill="#212121"/>
</svg>
