<svg width="65" height="59" viewBox="0 0 65 59" fill="none" xmlns="http://www.w3.org/2000/svg">
<path d="M58.7088 35.9221L60.2022 36.2885C57.1557 49.6426 45.7663 58.969 32.5 58.969C17.4015 58.969 5.0449 46.7162 4.12668 31.3096L1.0844 34.4611L0 33.3356L4.80416 28.3612L9.6062 33.3356L8.5218 34.4611L5.66912 31.5061C6.67683 45.9438 18.3091 57.38 32.5 57.38C45.0505 57.38 55.8263 48.5568 58.7088 35.9221ZM32.5 1.58899C46.6909 1.58899 58.3232 13.0253 59.3287 27.463L56.4782 24.5101L55.3917 25.6334L60.1958 30.6078L65 25.6312L63.9135 24.5079L60.8733 27.6572C59.9551 12.2528 47.6006 0 32.5 0C19.2401 0 7.8507 9.32646 4.80416 22.6806L6.29761 23.0469C9.18011 10.4123 19.9538 1.58899 32.5 1.58899ZM39.2173 16.5409C41.2732 16.5409 43.2076 17.3707 44.6649 18.8758C46.1562 20.4229 46.9551 22.4753 46.9189 24.6624C46.8827 26.7347 46.0837 28.6878 44.6649 30.1598L32.5 42.7592L20.3373 30.1598C18.8928 28.6635 18.0918 26.6729 18.0811 24.5542C18.0726 22.4091 18.8736 20.3942 20.3373 18.878C21.7881 17.3751 23.7162 16.5453 25.7678 16.5409H25.7806C27.8386 16.5409 29.773 17.3685 31.226 18.878L32.5 20.1956L33.774 18.878C35.227 17.3707 37.1614 16.5409 39.2173 16.5409ZM43.5783 19.9991C41.2476 17.587 37.187 17.587 34.8563 19.9991L32.5 22.4422L30.1437 19.9991C28.9784 18.7942 27.4295 18.1277 25.7827 18.1277C25.7784 18.1277 25.7763 18.1277 25.772 18.1277C24.1295 18.1299 22.5849 18.7964 21.4217 19.9991C20.2499 21.2107 19.6087 22.8262 19.615 24.5454C19.6236 26.2425 20.2648 27.8359 21.4217 29.0343L32.5 40.5125L43.5783 29.0343C44.7139 27.8558 45.3551 26.2933 45.3828 24.6315C45.4148 22.8814 44.7735 21.2372 43.5783 19.9991Z" fill="black"/>
</svg>
